<?xml version="1.0" encoding="utf-8"?>
<!-- Generator: Adobe Illustrator 24.3.0, SVG Export Plug-In . SVG Version: 6.00 Build 0)  -->
<svg version="1.1" id="Layer_1" xmlns="http://www.w3.org/2000/svg" xmlns:xlink="http://www.w3.org/1999/xlink" x="0px" y="0px"
	 viewBox="0 0 6016 2048" style="enable-background:new 0 0 6016 2048;" xml:space="preserve">
<style type="text/css">
	.st0{fill:#292019;}
	.st1{fill:none;}
	.st2{font-family:'Garamond-Bold';}
	.st3{font-size:700px;}
</style>
<g>
	<g>
		<g>
			<path class="st0" d="M129.05,997.06C201.02,1511.52,633.76,1907,1156.85,1907s955.82-395.48,1027.8-909.94H129.05z"/>
			<path class="st0" d="M128,1729.28C199.98,1829.76,632.71,1907,1155.8,1907s955.82-77.24,1027.8-177.72H128z"/>
			<path class="st0" d="M2444.68,1390.07c56.47-145.72-14.66-278.07-158.86-295.6c-144.2-17.53-306.88,86.38-363.34,232.11
				s14.66,278.07,158.86,295.6C2225.54,1639.71,2388.22,1535.79,2444.68,1390.07z M1969.56,1426.69
				c-17.68-30.16-19.9-66.18-6.24-101.42c13.66-35.24,42.33-67.51,80.74-90.85c44.07-26.78,94.26-38.37,141.33-32.65
				c47.07,5.72,84.17,27.93,104.45,62.53c17.68,30.16,19.9,66.18,6.24,101.42c-13.66,35.24-42.33,67.51-80.74,90.85
				c-44.07,26.78-94.26,38.37-141.33,32.65C2026.94,1483.51,1989.85,1461.3,1969.56,1426.69z"/>
		</g>
		<g>
			<path class="st0" d="M1444.4,465.67c-23.43,93.25-42.42,177.66-43.68,238.77c-3.23,61.11,11.25,98.9,9.29,98.9
				c1.96,0-29.72-37.8-43.68-98.9c-15.93-61.11-14.15-145.52,9.29-238.77c23.43-93.25,42.42-177.66,43.68-238.77
				c3.23-61.11-11.25-98.9-9.29-98.9c-1.96,0,29.72,37.8,43.68,98.9C1469.62,288.01,1467.83,372.43,1444.4,465.67z"/>
			<path class="st0" d="M1172.21,582.08c-11.72,64.54-21.21,122.96-21.84,165.25c-1.62,42.29,5.62,68.45,4.64,68.45
				c0.98,0-14.86-26.16-21.84-68.45c-7.97-42.29-7.07-100.72,4.64-165.25c11.72-64.54,21.21-122.96,21.84-165.25
				c1.62-42.29-5.62-68.45-4.64-68.45c-0.98,0,14.86,26.16,21.84,68.45C1184.82,459.12,1183.92,517.54,1172.21,582.08z"/>
		</g>
	</g>
	<rect x="2690" y="308.91" class="st1" width="3196" height="1430.18"/>
	<text transform="matrix(1 0 0 1 2690 765.3047)"><tspan x="0" y="0" class="st0 st2 st3">Conscious </tspan><tspan x="0" y="840" class="st0 st2 st3">Coffee</tspan></text>
	<rect x="5161.38" y="1018.36" class="st1" width="0" height="11.28"/>
</g>
</svg>
